<svg width="156" height="156" viewBox="0 0 156 156" fill="none" xmlns="http://www.w3.org/2000/svg">
<circle cx="78" cy="78" r="78" fill="#0DAEF2"/>
<path d="M122 74L121.511 36H93.7667L81.7889 78.4679C81.3 80.0005 80.8111 81.8154 80.3222 83.9125C79.8333 86.0097 79.3444 88.1069 78.8555 90.2041C78.2852 92.2206 77.837 94.0355 77.5111 95.6487H76.5333C76.3704 94.2775 76.0852 92.6642 75.6778 90.809C75.2704 88.8732 74.8222 86.8163 74.3333 84.6385C73.8444 82.4606 73.3148 80.3635 72.7444 78.3469C68.0668 61.8094 65.4443 52.5375 60.7667 36H33.5111V119H51.4778V79.6778C51.4778 76.0481 51.4778 72.4184 51.4778 68.7886C51.3963 65.0782 51.3148 61.8518 51.2333 59.1093C51.0704 56.3669 50.9889 54.5923 50.9889 53.7857H51.9667C52.1296 54.673 52.537 56.3265 53.1889 58.7464C53.7592 61.0855 54.4111 63.586 55.1444 66.2478C55.7963 68.9096 56.4074 71.2085 56.9778 73.1443L70.0555 119H85.9444L99.1444 73.2653C99.6333 71.5714 100.204 69.5952 100.856 67.3367C101.426 64.9976 101.996 62.6181 102.567 60.1983C103.056 57.6978 103.544 55.5603 104.033 53.7857L105.255 48.1837C105.337 45.1186 105.174 50.3615 105.255 48.1837C105.174 51.1681 105.093 54.2736 105.011 57.5C104.93 60.6458 105.011 58.3382 105.011 61L116.511 74H122Z" fill="white"/>
<g clip-path="url(#clip0_24_8)">
<path d="M87.6373 37.4837C85.1783 26.5475 77.2021 25.5212 73.4457 25.885C58.591 26.4316 52.0019 33.4453 53.8292 32.5614C55.6565 31.6775 69.8971 30.7186 70.2218 32.0148L55.8794 52.2475C55.8794 52.2475 43.0735 50.0596 31.8041 52.2475C23.6049 54.4338 12.6341 64.1264 12.6327 72.3672C12.6327 78.481 17.8672 81.3826 22.0635 81.5279C36.8193 82.0354 39.7967 80.0557 43.9945 75.174C49.2004 69.1195 51.1945 66.3335 56.9008 59.3514H77.5222L79.5 81L90 76C88.4635 67.7982 89.8484 47.3252 87.6359 37.4821L87.6373 37.4837ZM39.2993 74.137C37.3805 74.7617 33.4883 74.2932 30.241 74.137C23.7466 72.5754 24.7798 62.8932 29.0602 60.863C30.7635 60.0557 52.241 59.8948 52.241 59.8948L39.2993 74.137ZM61.9753 55.085L73.7835 36.9699L77.0307 55.085H61.9753Z" fill="black" stroke="black"/>
</g>
<path d="M33.5111 74L33.9999 36H61.7444L73.7222 78.4679C74.2111 80.0005 74.6999 81.8154 75.1888 83.9125C75.6777 86.0097 76.1666 88.1069 76.6555 90.2041C77.2259 92.2206 77.674 94.0355 77.9999 95.6487H78.9777C79.1407 94.2775 79.4259 92.6642 79.8333 90.809C80.2407 88.8732 80.6888 86.8163 81.1777 84.6385C81.6666 82.4606 91.9296 76.5165 92.5 74.5C97.1776 57.9625 90.0668 52.5375 94.7444 36H122V119H104.033V79.6778C104.033 76.0481 104.033 72.4184 104.033 68.7886C104.115 65.0782 104.196 61.8518 104.278 59.1093C104.441 56.3669 104.522 54.5923 104.522 53.7857H103.544C103.381 54.673 102.974 56.3265 102.322 58.7464C101.752 61.0855 101.1 63.586 100.367 66.2478C99.7148 68.9096 99.1036 71.2085 98.5333 73.1443L85.4555 119H69.5666L56.3666 73.2653C55.8777 71.5714 55.3073 69.5952 54.6555 67.3367C54.0851 64.9976 53.5148 62.6181 52.9444 60.1983C52.4555 57.6978 51.9666 55.5603 51.4777 53.7857L50.2556 48.1837C50.1741 45.1186 50.337 50.3615 50.2556 48.1837C50.337 51.1681 50.4185 54.2736 50.5 57.5C50.5815 60.6458 50.5 58.3382 50.5 61L39 74H33.5111Z" fill="white"/>
<defs>
<clipPath id="clip0_24_8">
<rect width="80" height="57" fill="white" transform="translate(11 25)"/>
</clipPath>
</defs>
</svg>
